Coordinates
version=1
nRows=9
nColumns=36
inDegrees=yes

Units are S.I. units (second, meters, Newtons, ...)
If the header above contains a line with 'inDegrees', this indicates whether rotational values are in degrees (yes) or radians (no).

endheader
time	pelvis_tilt	pelvis_list	pelvis_rotation	pelvis_tx	pelvis_ty	pelvis_tz	hip_flexion_r	hip_adduction_r	hip_rotation_r	knee_angle_r	knee_angle_r_beta	ankle_angle_r	subtalar_angle_r	mtp_angle_r	hip_flexion_l	hip_adduction_l	hip_rotation_l	knee_angle_l	knee_angle_l_beta	ankle_angle_l	subtalar_angle_l	mtp_angle_l	lumbar_extension	lumbar_bending	lumbar_rotation	arm_flex_r	arm_add_r	arm_rot_r	elbow_flex_r	pro_sup_r	arm_flex_l	arm_add_l	arm_rot_l	elbow_flex_l	pro_sup_l
      0.00000000	     -2.26765612	     -1.82493998	     -2.19923484	      0.15449674	      0.90933486	     -0.09994731	     -1.55945005	     -6.48585035	     -1.74211513	      2.49347377	      0.04351933	      1.22876567	    -15.95892500	     -6.93103337	     -1.32703858	     -9.69427218	      7.29777101	      3.93207754	      0.06862770	      6.31596515	    -11.86145609	     -6.93103337	     -0.85750020	      0.80086977	     -4.47774788	     32.67231826	      3.95559342	     56.06934744	    122.22778654	    109.50247074	     43.09016504	     12.72518181	     68.47160647	    116.63174749	     99.69243276
      0.01666670	     -4.09482555	     -1.90616312	     -1.44249183	      0.16172914	      0.90528727	     -0.09762235	     -0.88142089	     -6.33249088	     -2.29421040	      1.56387073	      0.02729469	      4.25957345	    -12.32214452	     -6.96994620	      0.51913391	    -10.07614377	      8.19389434	      2.94632278	      0.05142303	      7.17817497	     -9.55841543	     -6.96994620	      2.91578627	      1.01304209	     -6.21562685	     33.41316162	      4.58606443	     57.19299194	    122.75776917	    108.53879166	     43.69523360	     12.03714031	     68.26016527	    120.03397780	     98.98301000
      0.03333330	     -5.03246752	     -1.65382102	     -0.66177426	      0.16101545	      0.90436960	     -0.09783291	     -0.38567130	     -6.74244936	     -3.55966902	      0.96799230	      0.01689465	      4.21348195	    -11.95110399	     -7.07412272	      1.41495331	    -10.05753750	      8.49558734	      2.47835032	      0.04325537	      7.79110755	     -7.44992163	     -7.07412272	      4.21081564	      0.28102237	     -6.49418745	     32.08919351	      4.54332586	     57.90168219	    123.50079104	    106.12507751	     44.06036417	     11.58919358	     69.35344777	    121.89522262	     96.13154222
      0.05000000	     -5.18720311	     -1.48139092	      0.06489514	      0.15584034	      0.90075406	     -0.10134371	     -0.36079500	     -7.17073659	     -4.61523390	      0.82151565	      0.01433815	      5.15217547	    -10.68737785	     -7.08700036	      1.62002189	     -9.96716101	      8.90230318	      2.07289711	      0.03617888	      7.42106328	     -6.81323119	     -7.08700036	      4.32685006	     -0.07842788	     -6.68947627	     31.78508371	      4.59264573	     58.72136546	    123.18614209	    106.15056270	     45.02813284	     12.12716751	     70.56182468	    122.19554593	     95.78668434
      0.06666670	     -5.27625974	     -1.49854537	      0.50346290	      0.16073169	      0.89909191	     -0.09884847	     -0.56462457	     -7.10920436	     -5.26640308	      0.67338477	      0.01175278	      6.11472678	     -9.66832051	     -7.09927525	      1.55988922	    -10.15594167	      9.11881415	      1.64969069	      0.02879253	      7.45641905	     -6.23094195	     -7.09927525	      4.74987492	     -0.14721561	     -6.53385443	     31.25182740	      4.52754825	     59.31506186	    122.74065436	    105.87901208	     45.26247687	     12.56277262	     71.67658181	    122.01450701	     95.11039081
      0.08333330	     -5.41659927	     -1.45240132	      0.66357731	      0.15542496	      0.90069917	     -0.10172185	     -0.42556749	     -7.17741607	     -5.38830999	      0.63497321	      0.01108237	      6.68010556	     -9.69011664	     -7.10095478	      1.71150138	    -10.13968765	      9.59243692	      1.34354951	      0.02344936	      7.75221928	     -6.03543329	     -7.10095478	      4.82749223	      0.00268172	     -6.45586276	     31.14151357	      4.37136714	     59.52408914	    122.34532025	    105.81854371	     45.56961454	     12.94308637	     71.86742096	    121.90045318	     94.98153930
      0.10000000	     -5.36832734	     -1.37100759	      0.83139552	      0.15981786	      0.90380751	     -0.09889881	     -0.56130929	     -7.20613133	     -6.08774920	      0.56640058	      0.00988555	      7.61405075	     -8.02869360	     -7.18713414	      1.77644309	    -10.14627848	      9.55806785	      1.37807718	      0.02405198	      7.78349104	     -5.90665227	     -7.18713414	      4.95336901	     -0.27512400	     -6.11654543	     30.60601377	      4.05845720	     59.65668544	    121.69471994	    102.55121321	     45.79407927	     13.22454064	     73.27887232	    120.86222998	     87.59315558
      0.11666670	     -5.41465037	     -1.22528156	      0.87926109	      0.15494525	      0.90095078	     -0.10161143	     -0.45112329	     -7.37296951	     -6.45284155	      0.56781961	      0.00991032	      7.59699057	     -7.97310509	     -7.18900067	      2.00700380	     -9.97582183	      9.59494975	      1.38812160	      0.02422729	      7.45780847	     -5.83258329	     -7.18900067	      4.93048735	     -0.23322121	     -6.03877731	     30.87468470	      4.07794479	     59.59017320	    121.28914895	    102.52291555	     46.13552573	     13.50757712	     73.40269680	    120.54681456	     87.53114290
      0.13333330	     -5.25996512	     -1.14562164	      1.06667262	      0.15988189	      0.89984689	     -0.09888799	     -0.72637529	     -7.38726000	     -6.94284465	      0.53695146	      0.00937157	      7.87279119	     -7.38174575	     -7.19493500	      1.90423400	     -9.95841855	      9.72755499	      1.37268613	      0.02395789	      7.27534173	     -5.96776207	     -7.19493500	      5.01917165	     -0.44879880	     -6.04963404	     30.81862439	      4.21229603	     59.26193458	    120.82934592	    102.32867588	     46.28874627	     13.74599578	     73.95975425	    119.96439086	     87.19576653
